<?xml version="1.0" encoding="utf-8"?>
<!-- Generator: Adobe Illustrator 21.1.0, SVG Export Plug-In . SVG Version: 6.00 Build 0)  -->
<svg version="1.1" id="Layer_1" xmlns="http://www.w3.org/2000/svg" xmlns:xlink="http://www.w3.org/1999/xlink" x="0px" y="0px"
	 viewBox="0 0 30 30" style="enable-background:new 0 0 30 30;" xml:space="preserve">
<style type="text/css">
	.st0{fill:#FFFFFF;stroke:#484848;stroke-miterlimit:10;}
	.st1{fill:#484848;}
	.st2{fill:none;stroke:#484848;stroke-linecap:round;stroke-linejoin:round;stroke-miterlimit:10;}
	.st3{fill:#2887F9;stroke:#484848;stroke-linecap:round;stroke-linejoin:round;stroke-miterlimit:10;}
	.st4{fill:#FFFFFF;stroke:#484848;stroke-linecap:round;stroke-linejoin:round;stroke-miterlimit:10;}
</style>
<g>
	<g>
		<path class="st0" d="M26.6,13.7c-0.1,0-0.2,0-0.4,0C24.9,8.7,20.4,5,15,5c-5,0-9.3,3.2-10.9,7.7c-0.2-0.1-0.4-0.1-0.7-0.1
			c-1.6,0-2.9,1.3-2.9,2.9s1.3,2.9,2.9,2.9c0.1,0,0.1,0,0.2,0C4.5,24,9.3,28.2,15,28.2c5.4,0,9.9-3.7,11.2-8.7c0.1,0,0.2,0,0.4,0
			c1.6,0,2.9-1.3,2.9-2.9S28.2,13.7,26.6,13.7z"/>
		<g>
			<circle class="st1" cx="12.1" cy="16.6" r="0.8"/>
			<circle class="st1" cx="17.9" cy="16.6" r="0.8"/>
		</g>
		<path class="st2" d="M16.7,20.3c0,0.4-0.8,0.7-1.7,0.7s-1.7-0.3-1.7-0.7"/>
	</g>
	<g>
		<g>
			<path class="st3" d="M12.9,7.8c-0.9,0.3-1.8,0.5-2.7,0.7C9,8.7,7.7,7.9,7.7,6.5V3.6c0-1.4,1.2-2.2,2.5-2C11.1,1.8,12,2,12.9,2.2
				c0.4,0.1,0.8,0.2,1.2,0.4C14.7,3,15,3.6,15,4.3v1.4c0,1-0.8,1.7-1.7,2C13.2,7.7,13,7.7,12.9,7.8z"/>
			<path class="st3" d="M17.1,7.8c0.9,0.3,1.8,0.5,2.7,0.7c1.3,0.3,2.5-0.6,2.5-2V3.6c0-1.4-1.2-2.2-2.5-2C18.9,1.8,18,2,17.1,2.2
				c-0.4,0.1-0.8,0.2-1.2,0.4C15.3,3,15,3.6,15,4.3v1.4c0,1,0.8,1.7,1.7,2C16.8,7.7,17,7.7,17.1,7.8z"/>
		</g>
		<path class="st4" d="M15.4,8h-0.8c-0.7,0-1.4-0.6-1.4-1.4V3.4c0-0.7,0.6-1.4,1.4-1.4h0.8c0.7,0,1.4,0.6,1.4,1.4v3.2
			C16.7,7.4,16.1,8,15.4,8z"/>
	</g>
</g>
</svg>
