<?xml version="1.0" encoding="utf-8"?>
<!-- Generator: Adobe Illustrator 21.1.0, SVG Export Plug-In . SVG Version: 6.00 Build 0)  -->
<svg version="1.1" id="Layer_1" xmlns="http://www.w3.org/2000/svg" xmlns:xlink="http://www.w3.org/1999/xlink" x="0px" y="0px"
	 viewBox="0 0 30 30" style="enable-background:new 0 0 30 30;" xml:space="preserve">
<style type="text/css">
	.st0{fill:#EBEBEB;stroke:#484848;stroke-linecap:round;stroke-linejoin:round;stroke-miterlimit:10;}
	.st1{fill:none;stroke:#484848;stroke-linecap:round;stroke-linejoin:round;stroke-miterlimit:10;}
	.st2{fill:#FFFFFF;stroke:#484848;stroke-linecap:round;stroke-linejoin:round;stroke-miterlimit:10;}
	.st3{fill:#2887F9;stroke:#484848;stroke-linecap:round;stroke-linejoin:round;stroke-miterlimit:10;}
</style>
<g>
	<g>
		<path class="st0" d="M12,26.6c0-0.2,0.7-4.5,0.7-4.5h4.2l1,4.5H12z"/>
		<line class="st1" x1="9.5" y1="26.7" x2="20.5" y2="26.7"/>
	</g>
	<g>
		<g>
			<path class="st2" d="M0.5,19.2V3.8c0-0.3,0.2-0.5,0.5-0.5h28c0.3,0,0.5,0.2,0.5,0.5v15.4"/>
			<g>
				<line class="st1" x1="13" y1="10.9" x2="14.6" y2="9.3"/>
				<line class="st1" x1="15.4" y1="13.4" x2="17" y2="11.8"/>
				<line class="st1" x1="12.5" y1="13.7" x2="17.5" y2="8.9"/>
			</g>
		</g>
		<path class="st3" d="M0.5,19.2v1.9c0,0.6,0.5,1,1,1h27c0.6,0,1-0.4,1-0.9v-2H0.5z"/>
	</g>
</g>
</svg>
