<?xml version="1.0" encoding="utf-8"?>
<!-- Generator: Adobe Illustrator 21.1.0, SVG Export Plug-In . SVG Version: 6.00 Build 0)  -->
<svg version="1.1" id="Layer_1" xmlns="http://www.w3.org/2000/svg" xmlns:xlink="http://www.w3.org/1999/xlink" x="0px" y="0px"
	 viewBox="0 0 30 30" style="enable-background:new 0 0 30 30;" xml:space="preserve">
<style type="text/css">
	.st0{fill:#FFFFFF;}
	.st1{fill:#EBEBEB;}
	.st2{fill:none;stroke:#484848;stroke-width:1.0495;stroke-linecap:round;stroke-linejoin:round;stroke-miterlimit:10;}
	.st3{fill:#484848;}
	.st4{fill:none;stroke:#484848;stroke-miterlimit:10;}
	.st5{fill:#2887F9;stroke:#484848;stroke-miterlimit:10;}
	.st6{fill:#FFFFFF;stroke:#484848;stroke-miterlimit:10;}
	.st7{fill:#2887F9;stroke:#484848;stroke-linecap:round;stroke-linejoin:round;stroke-miterlimit:10;}
	.st8{fill:none;stroke:#484848;stroke-linecap:round;stroke-linejoin:round;stroke-miterlimit:10;}
	.st9{fill:#EBEBEB;stroke:#484848;stroke-miterlimit:10;}
	.st10{fill:#FFFFFF;stroke:#484848;stroke-width:0.8788;stroke-miterlimit:10;}
	.st11{fill:#FFFFFF;stroke:#484848;stroke-width:0.8788;stroke-linecap:round;stroke-linejoin:round;stroke-miterlimit:10;}
	.st12{fill:#EBEBEB;stroke:#484848;stroke-width:0.8788;stroke-miterlimit:10;}
	.st13{fill:none;stroke:#FFFFFF;stroke-width:0.8788;stroke-linecap:round;stroke-linejoin:round;stroke-miterlimit:10;}
	.st14{opacity:0.7;fill:#2887F9;}
	.st15{fill:none;stroke:#484848;stroke-width:1.0328;stroke-miterlimit:10;}
	.st16{fill:none;stroke:#484848;stroke-width:1.0328;stroke-linecap:round;stroke-linejoin:round;stroke-miterlimit:10;}
	.st17{fill:#EBEBEB;stroke:#484848;stroke-width:1.0328;stroke-linecap:round;stroke-linejoin:round;stroke-miterlimit:10;}
	.st18{fill:#FFFFFF;stroke:#484848;stroke-width:1.0328;stroke-linecap:round;stroke-linejoin:round;stroke-miterlimit:10;}
	.st19{fill:#FFFFFF;stroke:#484848;stroke-width:1.1343;stroke-linecap:round;stroke-linejoin:round;stroke-miterlimit:10;}
	.st20{fill:none;stroke:#484848;stroke-width:1.1343;stroke-linecap:round;stroke-linejoin:round;stroke-miterlimit:10;}
	.st21{fill:#EBEBEB;stroke:#484848;stroke-width:1.1343;stroke-linecap:round;stroke-linejoin:round;stroke-miterlimit:10;}
	.st22{fill:#2887F9;stroke:#484848;stroke-width:1.1343;stroke-linecap:round;stroke-linejoin:round;stroke-miterlimit:10;}
	.st23{fill:#EBEBEB;stroke:#484848;stroke-width:1.0655;stroke-linecap:round;stroke-linejoin:round;stroke-miterlimit:10;}
	.st24{fill:#FFFFFF;stroke:#484848;stroke-width:1.1379;stroke-linecap:round;stroke-linejoin:round;stroke-miterlimit:10;}
	.st25{fill:#FFFFFF;stroke:#484848;stroke-width:1.064;stroke-linecap:round;stroke-linejoin:round;stroke-miterlimit:10;}
	.st26{fill:none;stroke:#484848;stroke-width:1.064;stroke-linecap:round;stroke-linejoin:round;stroke-miterlimit:10;}
	.st27{fill:#2887F9;stroke:#484848;stroke-width:1.064;stroke-linecap:round;stroke-linejoin:round;stroke-miterlimit:10;}
	.st28{fill:none;stroke:#484848;stroke-width:0.9592;stroke-linecap:round;stroke-linejoin:round;stroke-miterlimit:10;}
	.st29{fill:none;stroke:#ABABAB;stroke-width:0.9592;stroke-linecap:round;stroke-linejoin:round;stroke-miterlimit:10;}
	.st30{fill:#2887F9;}
	.st31{fill:#FFFFFF;stroke:#484848;stroke-linecap:round;stroke-linejoin:round;stroke-miterlimit:10;}
	.st32{fill:#EBEBEB;stroke:#484848;stroke-linecap:round;stroke-linejoin:round;stroke-miterlimit:10;}
	.st33{fill:none;stroke:#484848;stroke-width:1.1339;stroke-linecap:round;stroke-linejoin:round;stroke-miterlimit:10;}
	.st34{fill:#A4D2FF;stroke:#484848;stroke-miterlimit:10;}
</style>
<path class="st0" d="M335.7,15.6l-14,9.9c-0.4,0.3-1.1,0.2-1.4-0.2l-6.7-9.5c-0.3-0.4-0.2-1.1,0.2-1.4l14-9.9
	c0.4-0.3,1.1-0.2,1.4,0.2l6.7,9.5C336.2,14.7,336.1,15.3,335.7,15.6z"/>
<polygon class="st1" points="329,4.5 336.2,14.6 337.4,14.7 341.4,11.9 333.7,1 332,1.4 329.3,3.3 "/>
<path class="st2" d="M318.1,11.1l9.6-6.8l1.1,0l0.4-1l3.2-2.3c0.4-0.3,1.1-0.2,1.4,0.2l7,9.9c0.3,0.4,0.2,1.1-0.2,1.4l-3.2,2.3
	l-1.1,0l-0.4,1.1l-14.3,10.1c-0.4,0.3-1.1,0.2-1.4-0.2l-7-9.9c-0.3-0.4-0.2-1.1,0.2-1.4l1.9-1.4"/>
<g>
	<ellipse transform="matrix(0.8162 -0.5778 0.5778 0.8162 53.723 196.4838)" class="st3" cx="335.6" cy="13.8" rx="0.2" ry="0.2"/>
	<ellipse transform="matrix(0.8162 -0.5778 0.5778 0.8162 56.0562 193.3936)" class="st3" cx="332" cy="8.6" rx="0.2" ry="0.2"/>
	<ellipse transform="matrix(0.8162 -0.5778 0.5778 0.8162 55.2785 194.4236)" class="st3" cx="333.2" cy="10.3" rx="0.2" ry="0.2"/>
	<ellipse transform="matrix(0.8162 -0.5778 0.5778 0.8162 54.5007 195.4537)" class="st3" cx="334.4" cy="12.1" rx="0.2" ry="0.2"/>
	<ellipse transform="matrix(0.8162 -0.5778 0.5778 0.8162 57.6117 191.3335)" class="st3" cx="329.5" cy="5.1" rx="0.2" ry="0.2"/>
	<ellipse transform="matrix(0.8162 -0.5778 0.5778 0.8162 56.8339 192.3635)" class="st3" cx="330.7" cy="6.9" rx="0.2" ry="0.2"/>
</g>
<g>
	<line class="st2" x1="328.1" y1="12.6" x2="322.4" y2="16.7"/>
	<line class="st2" x1="326.7" y1="10.6" x2="321" y2="14.7"/>
	<line class="st2" x1="329.5" y1="14.7" x2="323.8" y2="18.7"/>
	<ellipse transform="matrix(0.8162 -0.5778 0.5778 0.8162 47.9819 189.9795)" class="st3" cx="322.6" cy="19.6" rx="0.6" ry="0.6"/>
	<ellipse transform="matrix(0.8162 -0.5778 0.5778 0.8162 48.8829 188.7862)" class="st3" cx="321.1" cy="17.6" rx="0.6" ry="0.6"/>
	<ellipse transform="matrix(0.8162 -0.5778 0.5778 0.8162 49.7839 187.5928)" class="st3" cx="319.7" cy="15.6" rx="0.6" ry="0.6"/>
</g>
<rect x="284.3" y="24.7" class="st1" width="17.8" height="4.3"/>
<rect x="284.3" y="0.8" class="st1" width="17.8" height="4.3"/>
<rect x="206.9" y="19.1" class="st1" width="28.6" height="2.4"/>
<path class="st1" d="M234.6,21.3H208c-0.5,0-0.9-0.4-0.9-0.9v0c0-0.5,0.4-0.9,0.9-0.9h26.6c0.5,0,0.9,0.4,0.9,0.9v0
	C235.5,20.9,235.1,21.3,234.6,21.3z"/>
<g>
	<path class="st4" d="M17.3,14.5H13c-0.4,0-0.8-0.3-0.8-0.8v-3.5c0-0.4,0.3-0.8,0.8-0.8h4.4c0.4,0,0.8,0.3,0.8,0.8v3.5
		C18.1,14.2,17.8,14.5,17.3,14.5z"/>
	<g>
		<path class="st5" d="M10,23.6c-0.9,0.1-1.9,0.3-2.9,0.6c0.4,1.7,0.9,3.3,1.1,4c0.1,0.3,0.2,0.6,0.4,0.8c0.3,0.4,0.8,0.4,1.2,0.4
			h4.5H16h4.5c0.4,0,0.9-0.1,1.2-0.4c0.2-0.2,0.3-0.5,0.4-0.8c0.1-0.5,0.4-1.4,0.7-2.5C18.6,25.4,14.4,23,10,23.6z"/>
		<path class="st6" d="M22.6,15.4c-1.5-2.1-4-3.5-6.6-3.5h-1.7c-2.6,0-5.1,1.3-6.6,3.5c-0.9,1.3-1.4,2.9-1.4,4.4
			c0,0.7,0.4,2.6,0.8,4.4c1-0.3,2-0.5,2.9-0.6c4.3-0.6,8.5,1.8,12.8,2.1c0.6-2.2,1.2-4.9,1.2-5.9C24,18.3,23.5,16.7,22.6,15.4z"/>
	</g>
	<path class="st7" d="M18.6,14.4c0,0,1.2,0.1,1.7,1.1"/>
	<path class="st8" d="M21.3,17c0,0,1.6,1.9,0.3,5.8"/>
	<g>
		<polygon class="st8" points="12.2,0.5 18.3,0.5 21.3,3.4 17.6,9.1 12.5,9.1 9.1,3.5 		"/>
		<line class="st8" x1="9.1" y1="3.5" x2="20.7" y2="3.5"/>
		<polygon class="st8" points="14.9,0.5 12.2,3.5 15.1,9.1 18,3.5 15.3,0.5 		"/>
	</g>
</g>


</svg>
