<?xml version="1.0" encoding="utf-8"?>
<!-- Generator: Adobe Illustrator 21.1.0, SVG Export Plug-In . SVG Version: 6.00 Build 0)  -->
<svg version="1.1" id="Layer_1" xmlns="http://www.w3.org/2000/svg" xmlns:xlink="http://www.w3.org/1999/xlink" x="0px" y="0px"
	 viewBox="0 0 30 30" style="enable-background:new 0 0 30 30;" xml:space="preserve">
<style type="text/css">
	.st0{fill:#FFFFFF;stroke:#484848;stroke-linecap:round;stroke-linejoin:round;stroke-miterlimit:10;}
	.st1{fill:none;stroke:#484848;stroke-linecap:round;stroke-linejoin:round;stroke-miterlimit:10;}
	.st2{fill:#2887F9;stroke:#484848;stroke-linecap:round;stroke-linejoin:round;stroke-miterlimit:10;}
</style>
<path class="st0" d="M21.9,12v13.2c0,1.1-0.9,2.1-2.1,2.1H6.8c-1.1,0-2.1-0.9-2.1-2.1V12"/>
<polygon class="st0" points="8.2,5.9 8.2,7.5 4.7,12 21.9,12 18.5,7.6 18.5,5.9 "/>
<g>
	<line class="st1" x1="13.2" y1="15.8" x2="13.2" y2="19.7"/>
	<line class="st1" x1="15.2" y1="17.7" x2="11.3" y2="17.7"/>
</g>
<path class="st0" d="M19.2,5.9H7.4c-0.3,0-0.5-0.2-0.5-0.5V1c0-0.3,0.2-0.5,0.5-0.5h11.9c0.3,0,0.5,0.2,0.5,0.5v4.5
	C19.7,5.7,19.5,5.9,19.2,5.9z"/>
<line class="st1" x1="18.5" y1="7.9" x2="10.5" y2="7.9"/>
<line class="st0" x1="4.7" y1="23.4" x2="21.9" y2="23.4"/>
<g>
	<path class="st0" d="M18.7,20.3l2.7-2.2c1.7-1.3,4.1-1,5.4,0.6l0.1,0.1c1.3,1.7,1,4.1-0.6,5.4l-2.7,2.2"/>
	<path class="st2" d="M23.5,26.5l-2.7,2.2c-1.7,1.3-4.1,1-5.4-0.6l-0.1-0.1c-1.3-1.7-1-4.1,0.6-5.4l2.7-2.2L23.5,26.5z"/>
</g>
</svg>
