<?xml version="1.0" encoding="utf-8"?>
<!-- Generator: Adobe Illustrator 21.1.0, SVG Export Plug-In . SVG Version: 6.00 Build 0)  -->
<svg version="1.1" id="Layer_1" xmlns="http://www.w3.org/2000/svg" xmlns:xlink="http://www.w3.org/1999/xlink" x="0px" y="0px"
	 viewBox="0 0 30 30" style="enable-background:new 0 0 30 30;" xml:space="preserve">
<style type="text/css">
	.st0{fill:#2887F9;stroke:#484848;stroke-linecap:round;stroke-linejoin:round;stroke-miterlimit:10;}
	.st1{fill:#FFFFFF;stroke:#484848;stroke-linecap:round;stroke-linejoin:round;stroke-miterlimit:10;}
	.st2{fill:#484848;}
	.st3{fill:none;stroke:#484848;stroke-linecap:round;stroke-linejoin:round;stroke-miterlimit:10;}
</style>
<g>
	<rect x="8.3" y="0.5" class="st0" width="14.6" height="4.1"/>
	<path class="st1" d="M24.6,29.5H6.5c-0.6,0-1-0.4-1-1V3.6c0-0.5,0.4-1,1-1h18.1c0.5,0,1,0.5,1,1v24.9C25.6,29,25.2,29.5,24.6,29.5z
		"/>
	<g>
		<path class="st2" d="M10.7,12.4H8.4c-0.1,0-0.1,0-0.1-0.1V10c0-0.1,0-0.1,0.1-0.1h2.3c0.1,0,0.1,0,0.1,0.1v2.3
			C10.8,12.4,10.8,12.4,10.7,12.4z"/>
		<path class="st2" d="M14.7,12.5h-2.3c-0.1,0-0.1,0-0.1-0.1V10c0-0.1,0-0.1,0.1-0.1h2.3c0.1,0,0.1,0,0.1,0.1v2.3
			C14.8,12.4,14.8,12.5,14.7,12.5z"/>
		<path class="st2" d="M18.8,12.5h-2.3c-0.1,0-0.1,0-0.1-0.1V10c0-0.1,0-0.1,0.1-0.1h2.3c0.1,0,0.1,0,0.1,0.1v2.3
			C18.9,12.4,18.8,12.5,18.8,12.5z"/>
		<path class="st2" d="M22.8,12.5h-2.3c-0.1,0-0.1,0-0.1-0.1V10c0-0.1,0-0.1,0.1-0.1h2.3c0.1,0,0.1,0,0.1,0.1v2.3
			C22.9,12.4,22.8,12.5,22.8,12.5z"/>
	</g>
	<g>
		<path class="st2" d="M10.7,7.7H8.4c-0.1,0-0.1,0-0.1-0.1V5.3c0-0.1,0-0.1,0.1-0.1h2.3c0.1,0,0.1,0,0.1,0.1v2.3
			C10.8,7.7,10.8,7.7,10.7,7.7z"/>
		<path class="st2" d="M14.7,7.8h-2.3c-0.1,0-0.1,0-0.1-0.1V5.3c0-0.1,0-0.1,0.1-0.1h2.3c0.1,0,0.1,0,0.1,0.1v2.3
			C14.8,7.7,14.8,7.8,14.7,7.8z"/>
		<path class="st2" d="M18.8,7.8h-2.3c-0.1,0-0.1,0-0.1-0.1V5.3c0-0.1,0-0.1,0.1-0.1h2.3c0.1,0,0.1,0,0.1,0.1v2.3
			C18.9,7.7,18.8,7.8,18.8,7.8z"/>
		<path class="st2" d="M22.8,7.8h-2.3c-0.1,0-0.1,0-0.1-0.1V5.3c0-0.1,0-0.1,0.1-0.1h2.3c0.1,0,0.1,0,0.1,0.1v2.3
			C22.9,7.7,22.8,7.8,22.8,7.8z"/>
	</g>
	<g>
		<path class="st2" d="M10.7,17.1H8.4c-0.1,0-0.1,0-0.1-0.1v-2.3c0-0.1,0-0.1,0.1-0.1h2.3c0.1,0,0.1,0,0.1,0.1V17
			C10.8,17.1,10.8,17.1,10.7,17.1z"/>
		<path class="st2" d="M14.7,17.2h-2.3c-0.1,0-0.1,0-0.1-0.1v-2.3c0-0.1,0-0.1,0.1-0.1h2.3c0.1,0,0.1,0,0.1,0.1V17
			C14.8,17.1,14.8,17.2,14.7,17.2z"/>
		<path class="st2" d="M18.8,17.2h-2.3c-0.1,0-0.1,0-0.1-0.1v-2.3c0-0.1,0-0.1,0.1-0.1h2.3c0.1,0,0.1,0,0.1,0.1V17
			C18.9,17.1,18.8,17.2,18.8,17.2z"/>
		<path class="st2" d="M22.8,17.2h-2.3c-0.1,0-0.1,0-0.1-0.1v-2.3c0-0.1,0-0.1,0.1-0.1h2.3c0.1,0,0.1,0,0.1,0.1V17
			C22.9,17.1,22.8,17.2,22.8,17.2z"/>
	</g>
	<g>
		<path class="st2" d="M10.7,21.8H8.4c-0.1,0-0.1,0-0.1-0.1v-2.3c0-0.1,0-0.1,0.1-0.1h2.3c0.1,0,0.1,0,0.1,0.1v2.3
			C10.8,21.8,10.8,21.8,10.7,21.8z"/>
		<path class="st2" d="M14.7,21.9h-2.3c-0.1,0-0.1,0-0.1-0.1v-2.3c0-0.1,0-0.1,0.1-0.1h2.3c0.1,0,0.1,0,0.1,0.1v2.3
			C14.8,21.8,14.8,21.9,14.7,21.9z"/>
		<path class="st2" d="M18.8,21.9h-2.3c-0.1,0-0.1,0-0.1-0.1v-2.3c0-0.1,0-0.1,0.1-0.1h2.3c0.1,0,0.1,0,0.1,0.1v2.3L18.8,21.9z"/>
		<path class="st2" d="M22.8,21.9h-2.3c-0.1,0-0.1,0-0.1-0.1v-2.3c0-0.1,0-0.1,0.1-0.1h2.3c0.1,0,0.1,0,0.1,0.1v2.3L22.8,21.9z"/>
	</g>
	<rect x="12.2" y="24.5" class="st0" width="6.9" height="4.9"/>
	<line class="st3" x1="15.6" y1="25" x2="15.6" y2="28.8"/>
</g>
</svg>
