<?xml version="1.0" encoding="utf-8"?>
<!-- Generator: Adobe Illustrator 21.1.0, SVG Export Plug-In . SVG Version: 6.00 Build 0)  -->
<svg version="1.1" id="Layer_1" xmlns="http://www.w3.org/2000/svg" xmlns:xlink="http://www.w3.org/1999/xlink" x="0px" y="0px"
	 viewBox="0 0 30 30" style="enable-background:new 0 0 30 30;" xml:space="preserve">
<style type="text/css">
	.st0{fill:#FFFFFF;stroke:#484848;stroke-linecap:round;stroke-linejoin:round;stroke-miterlimit:10;}
	.st1{fill:none;stroke:#484848;stroke-linecap:round;stroke-linejoin:round;stroke-miterlimit:10;}
	.st2{fill:#2887F9;stroke:#484848;stroke-linecap:round;stroke-linejoin:round;stroke-miterlimit:10;}
</style>
<g>
	<g>
		<path class="st0" d="M24.4,26.5H5.3c-0.5,0-3.2-6.9-3.2-6.9s2.6-6.8,3.2-6.8h19.2c0.5,0,3.4,6.8,3.4,6.8S25,26.5,24.4,26.5z"/>
		<line class="st1" x1="27.8" y1="19.6" x2="29.5" y2="19.6"/>
		<line class="st1" x1="0.5" y1="19.6" x2="2.1" y2="19.6"/>
	</g>
	<g>
		<path class="st2" d="M11,11.2c-0.6-2.3-1.6-4.5-2.2-6.9C8.9,4.6,15,6,18.9,2.8c0.5-0.4,1.4-0.5,2-0.3c0,0,0.1,0,0.1,0.1
			c0.1,0.1,0,0.5-0.1,0.7c-0.1,0.3-0.1,0.6-0.2,0.9c-0.1,0.6-0.3,1.2-0.4,1.9c-0.3,1.7-0.7,3.4-1,5.1c0,0,0,0,0,0.1"/>
		<path class="st0" d="M7.5,12.5c0-0.5,0.5-1,1-1h12.9c0.6,0,1,0.4,1,1v0"/>
	</g>
</g>
<g>
	<line class="st1" x1="6.9" y1="19.6" x2="23" y2="19.6"/>
	<line class="st1" x1="6.9" y1="18.6" x2="6.9" y2="20.6"/>
	<line class="st1" x1="23" y1="18.6" x2="23" y2="20.6"/>
</g>
<path class="st1" d="M9.2,3.2"/>
</svg>
