<?xml version="1.0" encoding="utf-8"?>
<!-- Generator: Adobe Illustrator 21.1.0, SVG Export Plug-In . SVG Version: 6.00 Build 0)  -->
<svg version="1.1" id="Layer_1" xmlns="http://www.w3.org/2000/svg" xmlns:xlink="http://www.w3.org/1999/xlink" x="0px" y="0px"
	 viewBox="0 0 41.2 23.3" style="enable-background:new 0 0 41.2 23.3;" xml:space="preserve">
<style type="text/css">
	.st0{fill:#FFFFFF;stroke:#484848;stroke-width:1.3;stroke-linecap:round;stroke-linejoin:round;stroke-miterlimit:10;}
	.st1{fill:none;stroke:#484848;stroke-width:1.3;stroke-linecap:round;stroke-linejoin:round;stroke-miterlimit:10;}
	.st2{fill:#2887F9;stroke:#484848;stroke-width:1.3;stroke-linecap:round;stroke-linejoin:round;stroke-miterlimit:10;}
	.st3{fill:#484848;}
</style>
<path class="st0" d="M39.8,22.6H1.3c-0.4,0-0.7-0.3-0.7-0.7V1.3C0.6,1,1,0.6,1.3,0.6h38.5c0.4,0,0.7,0.3,0.7,0.7V22
	C40.5,22.3,40.2,22.6,39.8,22.6z"/>
<line class="st1" x1="30.7" y1="0.6" x2="30.7" y2="22.6"/>
<line class="st1" x1="33" y1="9.9" x2="37.9" y2="9.9"/>
<line class="st1" x1="33.1" y1="4" x2="38" y2="4"/>
<line class="st1" x1="33.1" y1="7" x2="38" y2="7"/>
<path class="st2" d="M37.3,19.3h-3.5c-0.4,0-0.7-0.3-0.7-0.7v-3.5c0-0.4,0.3-0.7,0.7-0.7h3.5c0.4,0,0.7,0.3,0.7,0.7v3.5
	C38,19,37.7,19.3,37.3,19.3z"/>
<g>
	<path class="st3" d="M7.3,10.1H6V9.6h3.1v0.6H7.9v3.6H7.3V10.1z"/>
	<path class="st3" d="M9.9,9.6h0.7v4.2H9.9V9.6z"/>
	<path class="st3" d="M11.4,11.7c0-1.4,0.8-2.2,1.9-2.2c0.5,0,0.9,0.3,1.2,0.5l-0.4,0.4c-0.2-0.2-0.5-0.4-0.8-0.4
		c-0.7,0-1.2,0.6-1.2,1.6c0,1,0.5,1.6,1.2,1.6c0.4,0,0.7-0.2,0.9-0.4l0.4,0.4c-0.3,0.4-0.8,0.6-1.3,0.6C12.2,13.8,11.4,13,11.4,11.7
		z"/>
	<path class="st3" d="M15.3,9.6H16v2h0l1.6-2h0.7L17,11.2l1.5,2.6h-0.7l-1.2-2.1L16,12.5v1.3h-0.7V9.6z"/>
	<path class="st3" d="M19.1,9.6h2.5v0.6h-1.8v1.2h1.5v0.6h-1.5v1.4h1.9v0.6h-2.5V9.6z"/>
	<path class="st3" d="M23.4,10.1h-1.2V9.6h3.1v0.6H24v3.6h-0.7V10.1z"/>
</g>
</svg>
