<?xml version="1.0" encoding="utf-8"?>
<!-- Generator: Adobe Illustrator 21.1.0, SVG Export Plug-In . SVG Version: 6.00 Build 0)  -->
<svg version="1.1" id="Layer_1" xmlns="http://www.w3.org/2000/svg" xmlns:xlink="http://www.w3.org/1999/xlink" x="0px" y="0px"
	 viewBox="0 0 30 30" style="enable-background:new 0 0 30 30;" xml:space="preserve">
<style type="text/css">
	.st0{fill:none;stroke:#484848;stroke-miterlimit:10;}
	.st1{fill:#2887F9;}
	.st2{fill:#FFFFFF;}
</style>
<path class="st0" d="M8.6,25.7c-4,2.7-7.1,3.9-8,2.8C-1,26.7,4,19.1,11.9,11.6S27.4-0.5,29,1.3c0.9,1-0.3,4-3,7.7"/>
<circle class="st1" cx="14.8" cy="14.9" r="12.6"/>
<path class="st2" d="M24.4,9.7c-0.1,0.1-0.2,0.2-0.3,0.2c-0.1,0-0.3,0-0.4-0.1l-0.8-0.6C22.6,9,22.3,9,22,9.2s-0.4,0.5-0.3,0.8
	l0.7,3.5v0.1c0.5,1.1,0.6,2,0.3,2.6c-0.3,0.5-0.8,0.7-0.8,0.7c-0.1,0-0.1,0.1-0.2,0c-0.3-0.1-0.5-0.5-0.7-0.8
	c-0.2-0.3-0.3-0.6-0.5-1c-0.1-0.3-0.2-0.7-0.5-0.8c-0.2-0.1-0.4,0-0.6,0c-0.9,0.3-1.7-0.4-2.6-0.6c-0.4-0.1-0.9-0.1-1.3-0.3
	c-0.3-0.2-0.6-0.4-0.8-0.6c-0.3-0.2-0.6-0.5-0.7-0.9c-0.1-0.4-0.1-0.8-0.2-1.2c0-0.6,0-1.1,0-1.7c0,0.1,0.4,0.3,0.5,0.3
	c0.2,0.1,0.3,0.2,0.5,0.3c0.4,0.1,0.8,0.1,1.1-0.1c0.4-0.3,0.6-0.8,0.5-1.3V8.1c-0.2-0.5,0-1.1,0.4-1.5l0.9-0.9c0,0,0,0,0.1-0.1
	c0.6-0.8,0-2-0.6-2.8c3.5,0.5,6.5,3.1,7.9,5.5L24.4,9.7z"/>
<path class="st2" d="M10.4,25.4L10,26c-2.5-1-5.1-3.4-6.4-6.5l1.9-0.7c0.1,0,0.2,0,0.3,0C5.9,18.9,6,19,6,19.1v0.7
	c0,0.9,0.6,1.8,1.4,2.2l1.4,0.6c0.3,0.1,0.6,0.3,0.8,0.6l0.3,0.3C10.4,23.9,10.6,24.7,10.4,25.4z"/>
<path class="st0" d="M25.9,9c-2,2.8-4.9,6-8.2,9.2c-3.2,3.1-6.4,5.6-9.1,7.5"/>
<path class="st2" d="M12.6,5.5c-0.1,0.6-0.4,1.2-1.1,1.5L8.6,8.8C7.8,9.3,7.5,10.1,7.7,11c0.1,0.4-0.2,0.8-0.7,0.9l-4.5,0.9
	c1.2-4.3,2.8-7.9,9.8-9.7c0.3,0.5,0.4,1.1,0.3,1.6V5.5L12.6,5.5z"/>
<circle class="st0" cx="14.8" cy="14.9" r="12.6"/>
</svg>
