<?xml version="1.0" encoding="utf-8"?>
<!-- Generator: Adobe Illustrator 21.1.0, SVG Export Plug-In . SVG Version: 6.00 Build 0)  -->
<svg version="1.1" id="Layer_1" xmlns="http://www.w3.org/2000/svg" xmlns:xlink="http://www.w3.org/1999/xlink" x="0px" y="0px"
	 viewBox="0 0 30 30" style="enable-background:new 0 0 30 30;" xml:space="preserve">
<style type="text/css">
	.st0{fill:#FFFFFF;stroke:#484848;stroke-miterlimit:10;}
	.st1{fill:#FFFFFF;stroke:#484848;stroke-linecap:round;stroke-linejoin:round;stroke-miterlimit:10;}
	.st2{fill:#69ABFB;stroke:#484848;stroke-width:0.9732;stroke-miterlimit:10;}
	.st3{fill:#484848;}
	.st4{fill:none;stroke:#FFFFFF;stroke-linecap:round;stroke-linejoin:round;stroke-miterlimit:10;}
</style>
<path class="st0" d="M15.3,29.5L15.3,29.5c-1.5,0-2.7-1.2-2.7-2.7l0.4-5.2c0-1.5,1.2-2.7,2.7-2.7l0,0c1.5,0,2,1.6,2,3.1l0.4,4.8
	C18.1,28.3,16.8,29.5,15.3,29.5z"/>
<path class="st1" d="M22.2,3.2h-3.5c0-0.1,0.1-0.2,0.1-0.4c0-0.8-0.7-0.4-1.5-0.4l0,0c-0.1-1.1-1-1.9-2.1-1.9s-2,0.9-2.1,1.9l0,0
	c-0.8,0-1.5-0.4-1.5,0.4c0,0.1,0,0.3,0.1,0.4H8.2c-1.2,0-2.1,1-2.1,2.1v14.2c0,1.2,1,2.1,2.1,2.1h14.2c1.2,0,2.1-1,2.1-2.1V5.3
	C24.3,4.2,23.4,3.2,22.2,3.2z"/>
<path class="st2" d="M21.5,19.6H9.2c-0.6,0-1.1-0.5-1.1-1.1V6.2c0-0.6,0.5-1.1,1.1-1.1h12.4c0.6,0,1.1,0.5,1.1,1.1v12.4
	C22.5,19.2,22.1,19.6,21.5,19.6z"/>
<path class="st3" d="M15.3,27.7L15.3,27.7c-0.3,0-0.5-0.2-0.5-0.5v-0.8c0-0.3,0.2-0.5,0.5-0.5l0,0c0.3,0,0.5,0.2,0.5,0.5v0.8
	C15.8,27.5,15.6,27.7,15.3,27.7z"/>
<line class="st4" x1="10.1" y1="8.8" x2="11.7" y2="7.3"/>
<line class="st4" x1="9.9" y1="11.6" x2="14.5" y2="7.4"/>
<ellipse transform="matrix(0.5 -0.866 0.866 0.5 5.1062 14.771)" class="st3" cx="15.3" cy="3" rx="0.6" ry="0.6"/>
</svg>
